<!--?xml version="1.0" standalone="no"?-->
              <svg id="sw-js-blob-svg" viewBox="0 0 100 100" xmlns="http://www.w3.org/2000/svg" version="1.1">
                    <defs> 
                        <linearGradient id="sw-gradient" x1="0" x2="1" y1="1" y2="0">
                            <stop id="stop1" stop-color="rgba(248, 117, 55, 1)" offset="0%"></stop>
                            <stop id="stop2" stop-color="rgba(31, 251, 135.488, 1)" offset="100%"></stop>
                        </linearGradient>
                    </defs>
                <path fill="url(#sw-gradient)" d="M20.6,-29.7C27.4,-27.7,34.2,-23.2,35.7,-17.1C37.2,-11.1,33.4,-3.4,31.3,3.8C29.2,11.1,28.9,17.9,24.7,19.6C20.4,21.2,12.3,17.6,6.3,17.7C0.3,17.7,-3.5,21.3,-6.1,20.7C-8.7,20,-10.2,15,-13.5,11.5C-16.8,8,-22,5.9,-26.4,1.4C-30.9,-3.2,-34.7,-10.4,-34.1,-17.3C-33.6,-24.1,-28.8,-30.7,-22.4,-32.9C-16,-35.1,-8,-33,-0.5,-32.2C6.9,-31.3,13.8,-31.7,20.6,-29.7Z" width="100%" height="100%" transform="translate(50 50)" stroke-width="0" style="transition: all 0.3s ease 0s;" stroke="url(#sw-gradient)"></path>
              </svg>