<svg xmlns="http://www.w3.org/2000/svg"  viewBox="0 0 24 24" width="64px" height="64px"><linearGradient id="bzlyyfKH-vuK-SVLSPrCva" x1="12" x2="12" y1="-.089" y2="24.434" gradientUnits="userSpaceOnUse"><stop offset="0" stop-color="#b2d235"/><stop offset="1" stop-color="#00aaad"/></linearGradient><path fill="url(#bzlyyfKH-vuK-SVLSPrCva)" d="M21,7H3C1.7,7,1.7,5,3,5h18C22.2999992,5,22.2999992,7,21,7z"/><linearGradient id="bzlyyfKH-vuK-SVLSPrCvb" x1="12" x2="12" y1="-.089" y2="24.434" gradientUnits="userSpaceOnUse"><stop offset="0" stop-color="#b2d235"/><stop offset="1" stop-color="#00aaad"/></linearGradient><path fill="url(#bzlyyfKH-vuK-SVLSPrCvb)" d="M21,13H3c-1.3,0-1.3-2,0-2h18C22.2999992,11,22.2999992,13,21,13z"/><linearGradient id="bzlyyfKH-vuK-SVLSPrCvc" x1="12" x2="12" y1="-.089" y2="24.434" gradientUnits="userSpaceOnUse"><stop offset="0" stop-color="#b2d235"/><stop offset="1" stop-color="#00aaad"/></linearGradient><path fill="url(#bzlyyfKH-vuK-SVLSPrCvc)" d="M21,19H3c-1.3,0-1.3-2,0-2h18C22.2999992,17,22.2999992,19,21,19z"/></svg>